<?xml version="1.0" encoding="UTF-8"?>
<svg id="katman_1" data-name="katman 1" xmlns="http://www.w3.org/2000/svg" viewBox="0 0 1080 1080">
  <defs>
    <style>
      .cls-1 {
        fill: #431fd9;
      }

      .cls-2 {
        fill: #3316ba;
      }

      .cls-3 {
        fill: #7252e8;
      }
    </style>
  </defs>
  <polygon class="cls-3" points="781.99 354.28 730.25 332.26 730.25 191.87 536.34 75.52 355.62 191.36 355.62 326.97 303.89 354.28 303.89 163.07 535.43 14.63 781.99 162.57 781.99 354.28"/>
  <polygon class="cls-3" points="146.54 460.87 96.31 491.7 94.81 281.9 281.3 175.45 284.49 226.91 146.54 310.95 146.54 460.87"/>
  <polygon class="cls-3" points="939.33 460.87 989.57 491.7 991.06 281.9 804.57 175.45 801.39 226.91 939.33 310.95 939.33 460.87"/>
  <polygon class="cls-3" points="541.22 1065.37 368.19 962.32 414.32 926 541.12 1005.09 676.25 927.17 720.88 957.71 541.22 1065.37"/>
  <polygon class="cls-3" points="747.97 943.57 563.94 829.35 602.4 792.54 747.82 882.58 939.33 762.52 939.33 554.84 820.43 485.54 820.31 430 991.06 524.3 991.06 791.14 747.97 943.57"/>
  <polygon class="cls-3" points="332.03 943.57 516.06 829.35 477.6 792.54 332.18 882.58 140.67 762.52 140.67 554.84 259.57 485.54 259.69 430 88.94 524.3 88.94 791.14 332.03 943.57"/>
  <g>
    <polygon class="cls-3" points="786.18 392.11 544.56 527.73 306.85 388.65 543.01 256.5 786.18 392.11"/>
    <polygon class="cls-1" points="784.92 661.1 544.88 799.14 544.56 527.73 786.18 392.11 784.92 661.1"/>
    <polygon class="cls-2" points="544.56 527.73 544.91 799.12 306.65 672.51 306.85 388.65 544.56 527.73"/>
  </g>
</svg>